# xmcd
#
# Track frame offsets:
#	150
#	14372
#	27836
#	41045
#	53043
#	66167
#	77677
#	95465
#	108002
#	124809
#	142671
#	154998
#	167810
#	185514
#	198756
#	214125
#	228723
#
# Disc length: 3247 seconds
#
# Revision: 0
# Processed by: cddbd v1.5.1PL0 Copyright (c) Steve Scherf et al.
# Submitted via: dBpowerAMP V4.0
#
DISCID=e00cad11
DTITLE=René guylline - Something Old - Something New part 2
DYEAR=1900
DGENRE=Country
TTITLE0=Heartbreak Hotel
TTITLE1=Apache (instrumental)
TTITLE2=All For The Love Of a Girl
TTITLE3=My Babe
TTITLE4=Sleepwalk (instrumental
TTITLE5=She's Not You
TTITLE6=Southern Streamline
TTITLE7=You're My Best Friend
TTITLE8=Turn It Loose
TTITLE9=I Only Have Eyes For You
TTITLE10=Needles and Pins
TTITLE11=Now's The Time To Fall In Love
TTITLE12=Steel Blue (instrumental-Guylline)
TTITLE13=Mona Lisa
TTITLE14=Lights Out In Memphis
TTITLE15=Ghost Riders In The Sky (instumental)
TTITLE16=I Need (Roel Van Bambost)
EXTD=
EXTT0=
EXTT1=
EXTT2=
EXTT3=
EXTT4=
EXTT5=
EXTT6=
EXTT7=
EXTT8=
EXTT9=
EXTT10=
EXTT11=
EXTT12=
EXTT13=
EXTT14=
EXTT15=
EXTT16=
PLAYORDER=
